<svg xmlns="http://www.w3.org/2000/svg" xmlns:xlink="http://www.w3.org/1999/xlink" width="270" zoomAndPan="magnify" viewBox="0 0 202.5 231" height="308" preserveAspectRatio="xMidYMid meet" version="1.0"><defs><clipPath id="e0e9c99110"><path d="M 0 0.285156 L 195.269531 0.285156 L 195.269531 229.96875 L 0 229.96875 Z M 0 0.285156 " clip-rule="nonzero"/></clipPath><clipPath id="e69a6dc408"><path d="M 6.570312 0.285156 L 201.839844 0.285156 L 201.839844 229.96875 L 6.570312 229.96875 Z M 6.570312 0.285156 " clip-rule="nonzero"/></clipPath></defs><g clip-path="url(#e0e9c99110)"><path fill="#0d799c" d="M 97.628906 0.308594 L 0 38.503906 L 0.320312 114.484375 C 0.367188 127.582031 2.757812 140.546875 7.355469 152.910156 C 11.859375 165 18.433594 176.304688 26.84375 186.554688 C 35.253906 196.804688 45.367188 205.675781 56.8125 212.984375 C 68.578125 220.476562 81.496094 226.132812 95.285156 229.761719 C 96.066406 229.992188 96.894531 230.085938 97.722656 230.085938 C 98.546875 230.085938 99.375 229.992188 100.15625 229.761719 C 113.945312 226.085938 126.863281 220.476562 138.582031 212.984375 C 150.027344 205.675781 160.09375 196.804688 168.507812 186.554688 C 176.917969 176.304688 183.492188 165 187.996094 152.910156 C 192.59375 140.5 194.980469 127.582031 195.027344 114.484375 L 195.351562 38.734375 Z M 185.605469 114.4375 C 185.558594 126.433594 183.398438 138.246094 179.171875 149.601562 C 175.035156 160.722656 169.011719 171.113281 161.242188 180.535156 C 153.476562 190.003906 144.144531 198.230469 133.527344 204.988281 C 122.632812 211.929688 110.589844 217.214844 97.765625 220.617188 C 97.765625 220.617188 97.765625 220.617188 97.722656 220.617188 C 97.722656 220.617188 97.675781 220.617188 97.675781 220.617188 C 84.851562 217.214844 72.808594 211.972656 61.914062 204.988281 C 51.296875 198.230469 41.964844 190.003906 34.152344 180.488281 C 26.382812 171.066406 20.363281 160.632812 16.179688 149.554688 C 11.949219 138.203125 9.789062 126.386719 9.746094 114.390625 L 9.46875 44.9375 L 97.628906 10.417969 L 185.882812 45.121094 Z M 185.605469 114.4375 " fill-opacity="1" fill-rule="nonzero"/></g><path fill="#0d799c" d="M 150.304688 103.773438 C 150.304688 103.683594 150.304688 103.636719 150.304688 103.542969 C 150.304688 103.40625 150.257812 103.222656 150.257812 103.085938 C 150.257812 102.992188 150.257812 102.945312 150.210938 102.855469 C 150.210938 102.714844 150.167969 102.578125 150.167969 102.441406 C 150.167969 102.347656 150.121094 102.304688 150.121094 102.210938 C 150.074219 102.074219 150.074219 101.933594 150.027344 101.796875 C 150.027344 101.707031 149.984375 101.660156 149.984375 101.566406 C 149.9375 101.429688 149.890625 101.246094 149.84375 101.109375 C 149.84375 101.0625 149.796875 101.015625 149.796875 100.925781 C 149.613281 100.28125 149.386719 99.683594 149.0625 99.085938 C 149.0625 99.039062 149.015625 99.039062 149.015625 98.992188 C 148.925781 98.808594 148.832031 98.671875 148.742188 98.488281 C 148.742188 98.441406 148.695312 98.441406 148.695312 98.394531 C 148.605469 98.210938 148.511719 98.074219 148.417969 97.9375 C 148.417969 97.890625 148.375 97.890625 148.375 97.84375 C 148.28125 97.660156 148.144531 97.523438 148.007812 97.339844 C 145.800781 94.351562 142.261719 92.375 138.261719 92.375 L 135.6875 92.375 L 135.6875 77.296875 C 135.6875 56.246094 118.496094 39.101562 97.398438 39.238281 C 76.394531 39.378906 59.570312 56.707031 59.570312 77.710938 L 59.570312 92.328125 L 56.996094 92.328125 C 50.378906 92.328125 44.953125 97.707031 44.953125 104.371094 L 44.953125 129.054688 C 44.953125 138.890625 47.664062 148.039062 52.308594 155.945312 C 52.308594 155.945312 52.308594 155.988281 52.355469 155.988281 C 52.953125 156.953125 53.546875 157.921875 54.191406 158.839844 C 54.191406 158.839844 54.238281 158.886719 54.238281 158.886719 C 54.558594 159.34375 54.882812 159.804688 55.203125 160.265625 C 55.894531 161.183594 56.582031 162.058594 57.316406 162.929688 C 57.363281 162.976562 57.363281 162.976562 57.410156 163.023438 C 58.511719 164.308594 59.617188 165.550781 60.8125 166.699219 C 60.855469 166.746094 60.902344 166.792969 60.949219 166.792969 C 61.730469 167.574219 62.558594 168.308594 63.429688 169.042969 C 63.476562 169.089844 63.523438 169.089844 63.523438 169.136719 C 63.890625 169.457031 64.304688 169.777344 64.71875 170.101562 C 64.765625 170.148438 64.808594 170.191406 64.855469 170.191406 C 65.730469 170.882812 66.601562 171.527344 67.476562 172.167969 C 67.523438 172.214844 67.613281 172.261719 67.660156 172.308594 C 68.074219 172.582031 68.488281 172.859375 68.902344 173.132812 C 68.945312 173.179688 68.992188 173.179688 69.039062 173.226562 C 69.5 173.546875 69.957031 173.824219 70.464844 174.101562 C 70.464844 174.101562 70.507812 174.144531 70.507812 174.144531 C 70.921875 174.421875 71.382812 174.652344 71.84375 174.925781 C 71.933594 174.972656 72.027344 175.019531 72.117188 175.066406 C 72.53125 175.292969 72.992188 175.523438 73.453125 175.753906 C 73.496094 175.753906 73.542969 175.800781 73.542969 175.800781 C 74.050781 176.03125 74.507812 176.304688 75.015625 176.535156 C 75.105469 176.582031 75.199219 176.628906 75.242188 176.628906 C 75.65625 176.8125 76.070312 176.996094 76.484375 177.179688 C 76.578125 177.226562 76.714844 177.269531 76.808594 177.316406 C 77.773438 177.730469 78.785156 178.144531 79.792969 178.511719 C 79.933594 178.558594 80.023438 178.605469 80.164062 178.648438 C 80.574219 178.789062 80.988281 178.925781 81.355469 179.0625 C 81.496094 179.109375 81.585938 179.15625 81.726562 179.203125 C 82.230469 179.386719 82.734375 179.523438 83.289062 179.660156 C 83.332031 179.660156 83.378906 179.707031 83.425781 179.707031 C 83.886719 179.84375 84.390625 179.984375 84.851562 180.074219 C 84.988281 180.121094 85.125 180.167969 85.265625 180.167969 C 85.679688 180.257812 86.089844 180.351562 86.503906 180.441406 C 86.644531 180.488281 86.734375 180.488281 86.875 180.535156 C 87.378906 180.625 87.929688 180.765625 88.4375 180.855469 C 88.527344 180.855469 88.664062 180.902344 88.757812 180.902344 C 89.171875 180.996094 89.632812 181.039062 90.042969 181.085938 C 90.183594 181.085938 90.367188 181.132812 90.503906 181.132812 C 90.964844 181.179688 91.421875 181.269531 91.882812 181.316406 C 91.976562 181.316406 92.066406 181.316406 92.160156 181.363281 C 92.710938 181.40625 93.214844 181.453125 93.769531 181.5 C 93.90625 181.5 94.042969 181.5 94.179688 181.546875 C 94.59375 181.59375 95.007812 181.59375 95.421875 181.59375 C 95.558594 181.59375 95.746094 181.59375 95.882812 181.59375 C 96.433594 181.59375 96.984375 181.636719 97.535156 181.636719 C 109.808594 181.636719 121.070312 177.457031 130.035156 170.421875 C 131.367188 169.367188 132.652344 168.261719 133.847656 167.113281 C 135.089844 165.964844 136.238281 164.722656 137.34375 163.4375 C 137.894531 162.792969 138.445312 162.148438 138.949219 161.503906 C 140.007812 160.171875 140.972656 158.792969 141.894531 157.367188 C 143.960938 154.152344 145.660156 150.703125 146.996094 147.074219 C 147.269531 146.246094 147.546875 145.464844 147.820312 144.636719 C 148.972656 140.914062 149.753906 137.050781 150.027344 133.054688 C 150.074219 132.179688 150.121094 131.261719 150.167969 130.339844 C 150.167969 129.882812 150.167969 129.421875 150.167969 128.960938 L 150.167969 104.28125 C 150.304688 104.1875 150.304688 104.003906 150.304688 103.773438 Z M 102.59375 135.488281 L 102.59375 146.152344 C 102.59375 147.671875 101.351562 148.910156 99.835938 148.910156 L 95.46875 148.910156 C 93.953125 148.910156 92.710938 147.671875 92.710938 146.152344 L 92.710938 135.488281 C 90.550781 133.925781 89.078125 131.398438 89.078125 128.546875 C 89.078125 123.8125 92.894531 120 97.628906 120 C 102.363281 120 106.179688 123.8125 106.179688 128.546875 C 106.222656 131.398438 104.800781 133.925781 102.59375 135.488281 Z M 124.886719 80.929688 L 124.886719 92.421875 L 70.464844 92.421875 L 70.464844 77.710938 C 70.464844 64.199219 80.207031 52.753906 93.125 50.546875 C 93.214844 50.546875 93.261719 50.5 93.355469 50.5 C 93.675781 50.453125 93.996094 50.410156 94.320312 50.363281 C 94.457031 50.363281 94.59375 50.316406 94.777344 50.316406 C 95.054688 50.269531 95.332031 50.269531 95.558594 50.226562 C 95.746094 50.226562 95.972656 50.179688 96.15625 50.179688 C 96.386719 50.179688 96.617188 50.179688 96.894531 50.132812 C 97.125 50.132812 97.351562 50.132812 97.582031 50.132812 C 97.8125 50.132812 98.042969 50.132812 98.316406 50.132812 C 98.546875 50.132812 98.777344 50.132812 99.007812 50.132812 C 99.238281 50.132812 99.46875 50.179688 99.699219 50.179688 C 99.925781 50.179688 100.15625 50.226562 100.386719 50.226562 C 100.617188 50.226562 100.847656 50.269531 101.078125 50.316406 C 101.304688 50.363281 101.535156 50.363281 101.71875 50.410156 C 101.949219 50.453125 102.179688 50.5 102.410156 50.546875 C 102.640625 50.59375 102.867188 50.640625 103.050781 50.683594 C 103.28125 50.730469 103.511719 50.777344 103.742188 50.824219 C 103.972656 50.867188 104.15625 50.914062 104.386719 50.960938 C 104.617188 51.007812 104.84375 51.097656 105.027344 51.144531 C 105.257812 51.191406 105.441406 51.28125 105.671875 51.328125 C 105.902344 51.375 106.085938 51.464844 106.316406 51.558594 C 106.5 51.605469 106.730469 51.695312 106.914062 51.789062 C 107.144531 51.878906 107.328125 51.972656 107.558594 52.019531 C 107.742188 52.109375 107.972656 52.15625 108.15625 52.246094 C 108.382812 52.339844 108.570312 52.429688 108.796875 52.523438 C 108.980469 52.613281 109.210938 52.707031 109.394531 52.800781 C 109.578125 52.890625 109.808594 52.984375 109.992188 53.121094 C 110.175781 53.210938 110.359375 53.304688 110.542969 53.398438 C 110.730469 53.488281 110.957031 53.625 111.140625 53.71875 C 111.328125 53.808594 111.511719 53.949219 111.695312 54.039062 C 111.878906 54.179688 112.0625 54.269531 112.246094 54.40625 C 112.429688 54.5 112.613281 54.636719 112.796875 54.730469 C 112.980469 54.867188 113.164062 55.003906 113.347656 55.097656 C 113.53125 55.234375 113.714844 55.328125 113.855469 55.464844 C 114.039062 55.601562 114.222656 55.742188 114.40625 55.878906 C 114.589844 56.015625 114.726562 56.15625 114.910156 56.292969 C 115.09375 56.429688 115.234375 56.566406 115.417969 56.753906 C 115.554688 56.890625 115.738281 57.027344 115.875 57.164062 C 116.0625 57.304688 116.199219 57.488281 116.382812 57.625 C 116.519531 57.761719 116.703125 57.902344 116.84375 58.085938 C 116.980469 58.222656 117.164062 58.40625 117.300781 58.589844 C 117.441406 58.730469 117.578125 58.914062 117.714844 59.050781 C 117.851562 59.234375 117.992188 59.371094 118.175781 59.554688 C 118.3125 59.695312 118.449219 59.878906 118.589844 60.015625 C 118.726562 60.199219 118.863281 60.382812 119.003906 60.566406 C 119.140625 60.75 119.277344 60.890625 119.371094 61.074219 C 119.507812 61.257812 119.644531 61.441406 119.785156 61.625 C 119.921875 61.808594 120.011719 61.945312 120.152344 62.128906 C 120.289062 62.3125 120.382812 62.496094 120.519531 62.726562 C 120.609375 62.910156 120.75 63.09375 120.839844 63.277344 C 120.980469 63.460938 121.070312 63.691406 121.207031 63.875 C 121.300781 64.058594 121.4375 64.246094 121.53125 64.429688 C 121.621094 64.613281 121.761719 64.84375 121.851562 65.027344 C 121.945312 65.210938 122.035156 65.394531 122.128906 65.578125 C 122.21875 65.808594 122.3125 65.992188 122.402344 66.222656 C 122.496094 66.40625 122.585938 66.589844 122.679688 66.773438 C 122.773438 67.003906 122.863281 67.230469 122.957031 67.414062 C 123.046875 67.601562 123.09375 67.785156 123.183594 67.96875 C 123.277344 68.195312 123.324219 68.425781 123.414062 68.65625 C 123.460938 68.839844 123.554688 69.023438 123.597656 69.253906 C 123.691406 69.484375 123.738281 69.714844 123.78125 69.945312 C 123.828125 70.128906 123.921875 70.359375 123.964844 70.542969 C 124.011719 70.769531 124.058594 71 124.152344 71.277344 C 124.195312 71.460938 124.242188 71.691406 124.289062 71.875 C 124.335938 72.105469 124.378906 72.378906 124.425781 72.609375 C 124.472656 72.792969 124.519531 72.976562 124.519531 73.207031 C 124.5625 73.484375 124.609375 73.757812 124.609375 74.035156 C 124.609375 74.21875 124.65625 74.402344 124.703125 74.585938 C 124.746094 74.90625 124.746094 75.183594 124.792969 75.503906 C 124.792969 75.644531 124.839844 75.828125 124.839844 75.964844 C 124.886719 76.425781 124.886719 76.882812 124.886719 77.34375 Z M 124.886719 80.929688 " fill-opacity="1" fill-rule="nonzero"/><g clip-path="url(#e69a6dc408)"><path fill="#38b6ff" d="M 104.199219 0.308594 L 6.570312 38.503906 L 6.894531 114.484375 C 6.941406 127.582031 9.328125 140.546875 13.925781 152.910156 C 18.429688 165 25.003906 176.304688 33.414062 186.554688 C 41.828125 196.804688 51.9375 205.675781 63.382812 212.984375 C 75.152344 220.476562 88.066406 226.132812 101.855469 229.761719 C 102.636719 229.992188 103.464844 230.085938 104.292969 230.085938 C 105.121094 230.085938 105.949219 229.992188 106.730469 229.761719 C 120.519531 226.085938 133.433594 220.476562 145.15625 212.984375 C 156.601562 205.675781 166.667969 196.804688 175.078125 186.554688 C 183.488281 176.304688 190.0625 165 194.566406 152.910156 C 199.164062 140.5 201.554688 127.582031 201.601562 114.484375 L 201.921875 38.734375 Z M 192.175781 114.4375 C 192.132812 126.433594 189.972656 138.246094 185.742188 149.601562 C 181.605469 160.722656 175.582031 171.113281 167.816406 180.535156 C 160.046875 190.003906 150.71875 198.230469 140.097656 204.988281 C 129.207031 211.929688 117.164062 217.214844 104.339844 220.617188 C 104.339844 220.617188 104.339844 220.617188 104.292969 220.617188 C 104.292969 220.617188 104.246094 220.617188 104.246094 220.617188 C 91.421875 217.214844 79.378906 211.972656 68.488281 204.988281 C 57.867188 198.230469 48.539062 190.003906 40.722656 180.488281 C 32.957031 171.066406 26.933594 160.632812 22.75 149.554688 C 18.523438 138.203125 16.363281 126.386719 16.316406 114.390625 L 16.039062 44.9375 L 104.199219 10.417969 L 192.453125 45.121094 Z M 192.175781 114.4375 " fill-opacity="1" fill-rule="nonzero"/></g><path fill="#38b6ff" d="M 156.875 103.773438 C 156.875 103.683594 156.875 103.636719 156.875 103.542969 C 156.875 103.40625 156.832031 103.222656 156.832031 103.085938 C 156.832031 102.992188 156.832031 102.945312 156.785156 102.855469 C 156.785156 102.714844 156.738281 102.578125 156.738281 102.441406 C 156.738281 102.347656 156.691406 102.304688 156.691406 102.210938 C 156.648438 102.074219 156.648438 101.933594 156.601562 101.796875 C 156.601562 101.707031 156.554688 101.660156 156.554688 101.566406 C 156.507812 101.429688 156.460938 101.246094 156.417969 101.109375 C 156.417969 101.0625 156.371094 101.015625 156.371094 100.925781 C 156.1875 100.28125 155.957031 99.683594 155.636719 99.085938 C 155.636719 99.039062 155.589844 99.039062 155.589844 98.992188 C 155.496094 98.808594 155.40625 98.671875 155.3125 98.488281 C 155.3125 98.441406 155.265625 98.441406 155.265625 98.394531 C 155.175781 98.210938 155.082031 98.074219 154.992188 97.9375 C 154.992188 97.890625 154.945312 97.890625 154.945312 97.84375 C 154.855469 97.660156 154.714844 97.523438 154.578125 97.339844 C 152.371094 94.351562 148.832031 92.375 144.832031 92.375 L 142.257812 92.375 L 142.257812 77.296875 C 142.257812 56.246094 125.070312 39.101562 103.972656 39.238281 C 82.964844 39.378906 66.140625 56.707031 66.140625 77.710938 L 66.140625 92.328125 L 63.566406 92.328125 C 56.949219 92.328125 51.523438 97.707031 51.523438 104.371094 L 51.523438 129.054688 C 51.523438 138.890625 54.238281 148.039062 58.878906 155.945312 C 58.878906 155.945312 58.878906 155.988281 58.925781 155.988281 C 59.523438 156.953125 60.121094 157.921875 60.765625 158.839844 C 60.765625 158.839844 60.808594 158.886719 60.808594 158.886719 C 61.132812 159.34375 61.453125 159.804688 61.777344 160.265625 C 62.464844 161.183594 63.15625 162.058594 63.890625 162.929688 C 63.9375 162.976562 63.9375 162.976562 63.980469 163.023438 C 65.085938 164.308594 66.1875 165.550781 67.382812 166.699219 C 67.429688 166.746094 67.476562 166.792969 67.519531 166.792969 C 68.300781 167.574219 69.128906 168.308594 70.003906 169.042969 C 70.050781 169.089844 70.09375 169.089844 70.09375 169.136719 C 70.460938 169.457031 70.875 169.777344 71.289062 170.101562 C 71.335938 170.148438 71.382812 170.191406 71.429688 170.191406 C 72.300781 170.882812 73.175781 171.527344 74.046875 172.167969 C 74.09375 172.214844 74.1875 172.261719 74.230469 172.308594 C 74.644531 172.582031 75.058594 172.859375 75.472656 173.132812 C 75.519531 173.179688 75.566406 173.179688 75.609375 173.226562 C 76.070312 173.546875 76.53125 173.824219 77.035156 174.101562 C 77.035156 174.101562 77.082031 174.144531 77.082031 174.144531 C 77.496094 174.421875 77.953125 174.652344 78.414062 174.925781 C 78.507812 174.972656 78.597656 175.019531 78.691406 175.066406 C 79.105469 175.292969 79.5625 175.523438 80.023438 175.753906 C 80.070312 175.753906 80.117188 175.800781 80.117188 175.800781 C 80.621094 176.03125 81.082031 176.304688 81.585938 176.535156 C 81.679688 176.582031 81.769531 176.628906 81.816406 176.628906 C 82.230469 176.8125 82.644531 176.996094 83.058594 177.179688 C 83.148438 177.226562 83.285156 177.269531 83.378906 177.316406 C 84.34375 177.730469 85.355469 178.144531 86.367188 178.511719 C 86.503906 178.558594 86.597656 178.605469 86.734375 178.648438 C 87.148438 178.789062 87.5625 178.925781 87.929688 179.0625 C 88.066406 179.109375 88.160156 179.15625 88.296875 179.203125 C 88.800781 179.386719 89.308594 179.523438 89.859375 179.660156 C 89.90625 179.660156 89.953125 179.707031 89.996094 179.707031 C 90.457031 179.84375 90.964844 179.984375 91.421875 180.074219 C 91.5625 180.121094 91.699219 180.167969 91.835938 180.167969 C 92.25 180.257812 92.664062 180.351562 93.078125 180.441406 C 93.214844 180.488281 93.308594 180.488281 93.445312 180.535156 C 93.949219 180.625 94.503906 180.765625 95.007812 180.855469 C 95.101562 180.855469 95.238281 180.902344 95.328125 180.902344 C 95.742188 180.996094 96.203125 181.039062 96.617188 181.085938 C 96.753906 181.085938 96.9375 181.132812 97.078125 181.132812 C 97.535156 181.179688 97.996094 181.269531 98.457031 181.316406 C 98.546875 181.316406 98.640625 181.316406 98.730469 181.363281 C 99.28125 181.40625 99.789062 181.453125 100.339844 181.5 C 100.476562 181.5 100.617188 181.5 100.753906 181.546875 C 101.167969 181.59375 101.582031 181.59375 101.996094 181.59375 C 102.132812 181.59375 102.316406 181.59375 102.453125 181.59375 C 103.003906 181.59375 103.558594 181.636719 104.109375 181.636719 C 116.382812 181.636719 127.644531 177.457031 136.605469 170.421875 C 137.9375 169.367188 139.226562 168.261719 140.421875 167.113281 C 141.660156 165.964844 142.8125 164.722656 143.914062 163.4375 C 144.464844 162.792969 145.015625 162.148438 145.523438 161.503906 C 146.582031 160.171875 147.546875 158.792969 148.464844 157.367188 C 150.53125 154.152344 152.234375 150.703125 153.566406 147.074219 C 153.84375 146.246094 154.117188 145.464844 154.394531 144.636719 C 155.542969 140.914062 156.324219 137.050781 156.601562 133.054688 C 156.644531 132.179688 156.691406 131.261719 156.738281 130.339844 C 156.738281 129.882812 156.738281 129.421875 156.738281 128.960938 L 156.738281 104.28125 C 156.875 104.1875 156.875 104.003906 156.875 103.773438 Z M 109.164062 135.488281 L 109.164062 146.152344 C 109.164062 147.671875 107.925781 148.910156 106.40625 148.910156 L 102.039062 148.910156 C 100.523438 148.910156 99.28125 147.671875 99.28125 146.152344 L 99.28125 135.488281 C 97.121094 133.925781 95.652344 131.398438 95.652344 128.546875 C 95.652344 123.8125 99.464844 120 104.199219 120 C 108.933594 120 112.75 123.8125 112.75 128.546875 C 112.796875 131.398438 111.371094 133.925781 109.164062 135.488281 Z M 131.457031 80.929688 L 131.457031 92.421875 L 77.035156 92.421875 L 77.035156 77.710938 C 77.035156 64.199219 86.78125 52.753906 99.695312 50.546875 C 99.789062 50.546875 99.835938 50.5 99.925781 50.5 C 100.246094 50.453125 100.570312 50.410156 100.890625 50.363281 C 101.03125 50.363281 101.167969 50.316406 101.351562 50.316406 C 101.625 50.269531 101.902344 50.269531 102.132812 50.226562 C 102.316406 50.226562 102.546875 50.179688 102.730469 50.179688 C 102.960938 50.179688 103.191406 50.179688 103.464844 50.132812 C 103.695312 50.132812 103.925781 50.132812 104.15625 50.132812 C 104.382812 50.132812 104.613281 50.132812 104.890625 50.132812 C 105.121094 50.132812 105.351562 50.132812 105.578125 50.132812 C 105.808594 50.132812 106.039062 50.179688 106.269531 50.179688 C 106.5 50.179688 106.730469 50.226562 106.957031 50.226562 C 107.1875 50.226562 107.417969 50.269531 107.648438 50.316406 C 107.878906 50.363281 108.109375 50.363281 108.292969 50.410156 C 108.523438 50.453125 108.75 50.5 108.980469 50.546875 C 109.210938 50.59375 109.441406 50.640625 109.625 50.683594 C 109.855469 50.730469 110.085938 50.777344 110.3125 50.824219 C 110.542969 50.867188 110.726562 50.914062 110.957031 50.960938 C 111.1875 51.007812 111.417969 51.097656 111.601562 51.144531 C 111.832031 51.191406 112.015625 51.28125 112.246094 51.328125 C 112.472656 51.375 112.660156 51.464844 112.886719 51.558594 C 113.070312 51.605469 113.300781 51.695312 113.484375 51.789062 C 113.714844 51.878906 113.898438 51.972656 114.128906 52.019531 C 114.3125 52.109375 114.542969 52.15625 114.726562 52.246094 C 114.957031 52.339844 115.140625 52.429688 115.371094 52.523438 C 115.554688 52.613281 115.785156 52.707031 115.96875 52.800781 C 116.152344 52.890625 116.382812 52.984375 116.566406 53.121094 C 116.75 53.210938 116.933594 53.304688 117.117188 53.398438 C 117.300781 53.488281 117.53125 53.625 117.714844 53.71875 C 117.898438 53.808594 118.082031 53.949219 118.265625 54.039062 C 118.449219 54.179688 118.632812 54.269531 118.816406 54.40625 C 119 54.5 119.183594 54.636719 119.371094 54.730469 C 119.554688 54.867188 119.738281 55.003906 119.921875 55.097656 C 120.105469 55.234375 120.289062 55.328125 120.425781 55.464844 C 120.609375 55.601562 120.792969 55.742188 120.976562 55.878906 C 121.160156 56.015625 121.300781 56.15625 121.484375 56.292969 C 121.667969 56.429688 121.804688 56.566406 121.988281 56.753906 C 122.128906 56.890625 122.3125 57.027344 122.449219 57.164062 C 122.632812 57.304688 122.769531 57.488281 122.953125 57.625 C 123.09375 57.761719 123.277344 57.902344 123.414062 58.085938 C 123.550781 58.222656 123.734375 58.40625 123.875 58.589844 C 124.011719 58.730469 124.148438 58.914062 124.289062 59.050781 C 124.425781 59.234375 124.5625 59.371094 124.746094 59.554688 C 124.886719 59.695312 125.023438 59.878906 125.160156 60.015625 C 125.296875 60.199219 125.4375 60.382812 125.574219 60.566406 C 125.710938 60.75 125.851562 60.890625 125.941406 61.074219 C 126.078125 61.257812 126.21875 61.441406 126.355469 61.625 C 126.492188 61.808594 126.585938 61.945312 126.722656 62.128906 C 126.863281 62.3125 126.953125 62.496094 127.089844 62.726562 C 127.183594 62.910156 127.320312 63.09375 127.414062 63.277344 C 127.550781 63.460938 127.644531 63.691406 127.78125 63.875 C 127.871094 64.058594 128.011719 64.246094 128.101562 64.429688 C 128.195312 64.613281 128.332031 64.84375 128.425781 65.027344 C 128.515625 65.210938 128.609375 65.394531 128.699219 65.578125 C 128.792969 65.808594 128.882812 65.992188 128.976562 66.222656 C 129.066406 66.40625 129.160156 66.589844 129.25 66.773438 C 129.34375 67.003906 129.433594 67.230469 129.527344 67.414062 C 129.621094 67.601562 129.664062 67.785156 129.757812 67.96875 C 129.847656 68.195312 129.894531 68.425781 129.988281 68.65625 C 130.03125 68.839844 130.125 69.023438 130.171875 69.253906 C 130.261719 69.484375 130.308594 69.714844 130.355469 69.945312 C 130.402344 70.128906 130.492188 70.359375 130.539062 70.542969 C 130.585938 70.769531 130.628906 71 130.722656 71.277344 C 130.769531 71.460938 130.8125 71.691406 130.859375 71.875 C 130.90625 72.105469 130.953125 72.378906 131 72.609375 C 131.042969 72.792969 131.089844 72.976562 131.089844 73.207031 C 131.136719 73.484375 131.183594 73.757812 131.183594 74.035156 C 131.183594 74.21875 131.226562 74.402344 131.273438 74.585938 C 131.320312 74.90625 131.320312 75.183594 131.367188 75.503906 C 131.367188 75.644531 131.410156 75.828125 131.410156 75.964844 C 131.457031 76.425781 131.457031 76.882812 131.457031 77.34375 Z M 131.457031 80.929688 " fill-opacity="1" fill-rule="nonzero"/></svg>